# xmcd
#
# Track frame offsets:
#	150
#	11565
#	23452
#	44782
#	57615
#	75555
#	87677
#	98217
#	115765
#	130110
#	145245
#	156772
#	166815
#	178605
#	191175
#	208822
#	226812
#	244480
#	258620
#	275407
#
# Disc length: 3869
#
# Revision: 1
# Processed by: cddbd v1.5.1PL0 Copyright (c) Steve Scherf et al.
# Submitted via: audiograbber 1.82.02
# Normalized: r0:DSETVAR1
#
DISCID=1f0f1b14
DTITLE=Various Artist - History Of Country Music - I Will Always Love You
DYEAR=1998
DGENRE=Classic Country Love Songs
TTITLE0=Sonny James - Young Love
TTITLE1=Patsy Cline - Sweet Dreams Of You
TTITLE2=Gary Morris - The Wind Beneath My Wings
TTITLE3=Bill Anderson - Still
TTITLE4=Bobby Goldsboro - Honey
TTITLE5=Skeeter Davis - The End Of The World
TTITLE6=Connie Smith - Once A Day
TTITLE7=John Anderson - When It Comes To You
TTITLE8=Lee Greenwood - I.O.U.
TTITLE9=Alabama - Love In The First Degree
TTITLE10=Donna Fargo - The Happiest Girl In The Whole USA
TTITLE11=Eddy Arnold - I Wanna Play House With You
TTITLE12=Johnny Cash - I Walk The Line
TTITLE13=Dave and Sugar - The Door Is Always Open
TTITLE14=Barbara Mandrell - Years
TTITLE15=Ronnie Milsap - What A Difference You've Made In My Life
TTITLE16=Juice Newton Duet with Eddie Rabbitt - Both To Each Other (Friends and Lovers)
TTITLE17=Dolly Parton - I Will Always Love You
TTITLE18=Keith Whitley - When You Say Nothing At All
TTITLE19=Waylon Jennings - Luckenbach, Texas (Back To The Basics Of Love)
EXTD=
EXTT0=
EXTT1=
EXTT2=
EXTT3=
EXTT4=
EXTT5=
EXTT6=
EXTT7=
EXTT8=
EXTT9=
EXTT10=
EXTT11=
EXTT12=
EXTT13=
EXTT14=
EXTT15=
EXTT16=
EXTT17=
EXTT18=
EXTT19=
PLAYORDER=
